# xmcd
#
# Track frame offsets:
#	150
#	27500
#	54956
#	77944
#	103478
#	124233
#	149668
#	188656
#	214705
#	243566
#	257841
#	279955
#
# Disc length: 3882 seconds
#
# Revision: 1
# Processed by: cddbd v1.5.2PL0 Copyright (c) Steve Scherf et al.
# Submitted via: audiograbber 1.83.01
#
DISCID=b70f280c
DTITLE=dave Sugarbeet and The Last Gasp Blues Band - Meet The Beet
DYEAR=2006
DGENRE=Blues
TTITLE0=Baffled By The Blues
TTITLE1=Meet The Beet
TTITLE2=I Was Sick But Now I'm Ill
TTITLE3=Give Me Strength
TTITLE4=When You've Got A Good Friend
TTITLE5=She Belongs To Me
TTITLE6=Got My Mobile Workin
TTITLE7=Jesus I'm Hitchin A Ride
TTITLE8=Corinna Corinna
TTITLE9=Soulmate
TTITLE10=Let's Get Together
TTITLE11=I Wish
EXTD=
EXTT0=
EXTT1=
EXTT2=
EXTT3=
EXTT4=
EXTT5=
EXTT6=
EXTT7=
EXTT8=
EXTT9=
EXTT10=
EXTT11=
PLAYORDER=
